# xmcd
#
# Track frame offsets: 
#        150
#        12170
#        37588
#        59944
#        74763
#        89227
#        106955
#        119064
#        136437
#        152403
#        168764
#        183874
#        196416
#
# Disc length: 2754 seconds
#
# Revision: 0
# Processed by: cddbd v1.5.2PL0 Copyright (c) Steve Scherf et al.
# Submitted via: ExactAudioCopy v0.90b4
#
DISCID=b70ac00d
DTITLE=Vince Mira - Vince Mira - Produced by John Carter Cash
DYEAR=2009
DGENRE=Country
TTITLE0=Cold Hearted Woman
TTITLE1=Easy Street
TTITLE2=Mr. Harrison
TTITLE3=Lonely Heart
TTITLE4=Rock Island Line
TTITLE5=Closer
TTITLE6=Blistered
TTITLE7=One More
TTITLE8=Since You've Been Gone
TTITLE9=I Was The Train
TTITLE10=The Story
TTITLE11=Ring Of Fire (Spanish - English)
TTITLE12=I Walk The Line (Spanish - English)
EXTD=
EXTT0=
EXTT1=
EXTT2=
EXTT3=
EXTT4=
EXTT5=
EXTT6=
EXTT7=
EXTT8=
EXTT9=
EXTT10=
EXTT11=
EXTT12=
PLAYORDER=
